<?xml version="1.0" encoding="UTF-8" standalone="no"?>
<!-- Generator: Adobe Illustrator 16.0.0, SVG Export Plug-In . SVG Version: 6.00 Build 0)  -->

<svg
   version="1.1"
   id="Layer_1"
   x="0px"
   y="0px"
   width="72px"
   height="72px"
   viewBox="0 0 72 72"
   enable-background="new 0 0 72 72"
   xml:space="preserve"
   sodipodi:docname="calendar.svg"
   inkscape:version="1.1.1 (3bf5ae0d25, 2021-09-20)"
   xmlns:inkscape="http://www.inkscape.org/namespaces/inkscape"
   xmlns:sodipodi="http://sodipodi.sourceforge.net/DTD/sodipodi-0.dtd"
   xmlns="http://www.w3.org/2000/svg"
   xmlns:svg="http://www.w3.org/2000/svg"><defs
   id="defs57" /><sodipodi:namedview
   id="namedview55"
   pagecolor="#ffffff"
   bordercolor="#666666"
   borderopacity="1.0"
   inkscape:pageshadow="2"
   inkscape:pageopacity="0.0"
   inkscape:pagecheckerboard="0"
   showgrid="false"
   inkscape:zoom="7.2222222"
   inkscape:cx="36"
   inkscape:cy="29.7"
   inkscape:window-width="1366"
   inkscape:window-height="705"
   inkscape:window-x="-8"
   inkscape:window-y="-8"
   inkscape:window-maximized="1"
   inkscape:current-layer="Layer_1" />
<g
   id="g52">
	<path
   d="M 61.068,11.969231 H 55 V 6.5230769 c 0,-1.104 -0.896,-2 -2,-2 -1.104,0 -1.169231,0.896 -1.169231,2 V 11.969231 H 19.169231 V 6.5230769 c 0,-1.104 -0.06523,-2 -1.169231,-2 -1.104,0 -2,0.896 -2,2 v 5.4461541 h -5.068 c -3.828,0 -5.4089231,2.134769 -5.4089231,5.962769 v 44.136 c 0,3.828 1.8578462,5.685846 5.6858461,5.685846 h 50.136 c 3.828,0 5.408923,-1.857846 5.408923,-5.685846 V 17.932 c 0,-3.828 -1.857846,-5.962769 -5.685846,-5.962769 z M 10.932,15 H 16 v 5 c 0,1.104 0.896,2 2,2 1.104,0 1.169231,-0.895 1.169231,-2 v -5 h 32.661538 v 5 c 0,1.104 0.06523,2 1.169231,2 1.104,0 2,-0.895 2,-2 v -5 h 6.068 C 62.688,15 64,16.313 64,17.932 V 28 H 8 V 17.932 C 8,16.313 9.313,15 10.932,15 Z M 61.068,65 H 10.932 C 9.313,65 8,63.688 8,62.068 V 30 H 64 V 62.068 C 64,63.688 62.688,65 61.068,65 Z"
   id="path2"
   style="fill:#6d4486;fill-opacity:1"
   sodipodi:nodetypes="scsssccssscssssssssscsssccssscssccsssssccss" />
	<path
   d="M59.896,56.641c-0.553,0-1.103,0.447-1.103,1c0,2.189-0.7,2.359-1.69,2.359h-6.31c-0.553,0-1,0.447-1,1s0.447,1,1,1h6.31   c2.295,0,3.631-1.287,3.779-3.828C60.893,58.115,61,58.059,61,58v-0.359C61,57.088,60.45,56.641,59.896,56.641z"
   id="path4"
   style="fill:#6d4486;fill-opacity:1" />
	<path
   d="M59.875,54.411c0.26,0,0.52-0.112,0.71-0.291c0.181-0.188,0.29-0.449,0.29-0.709c0-0.263-0.109-0.522-0.29-0.711   c-0.38-0.369-1.05-0.369-1.42,0c-0.181,0.19-0.29,0.448-0.29,0.711c0,0.271,0.109,0.521,0.29,0.709   C59.354,54.3,59.604,54.411,59.875,54.411z"
   id="path6"
   style="fill:#6d4486;fill-opacity:1" />
	<path
   d="M18.795,37h-1c-0.553,0-1,0.447-1,1s0.447,1,1,1h1c0.553,0,1-0.447,1-1S19.348,37,18.795,37z"
   id="path8"
   style="fill:#6d4486;fill-opacity:1" />
	<path
   d="M25.795,37h-1c-0.553,0-1,0.447-1,1s0.447,1,1,1h1c0.553,0,1-0.447,1-1S26.348,37,25.795,37z"
   id="path10"
   style="fill:#6d4486;fill-opacity:1" />
	<path
   d="M32.795,37h-1c-0.553,0-1,0.447-1,1s0.447,1,1,1h1c0.553,0,1-0.447,1-1S33.348,37,32.795,37z"
   id="path12"
   style="fill:#6d4486;fill-opacity:1" />
	<path
   d="M38.795,37h-1c-0.553,0-1,0.447-1,1s0.447,1,1,1h1c0.553,0,1-0.447,1-1S39.348,37,38.795,37z"
   id="path14"
   style="fill:#6d4486;fill-opacity:1" />
	<path
   d="M45.795,37h-1c-0.553,0-1,0.447-1,1s0.447,1,1,1h1c0.553,0,1-0.447,1-1S46.348,37,45.795,37z"
   id="path16"
   style="fill:#6d4486;fill-opacity:1" />
	<path
   d="M51.795,39h1c0.553,0,1-0.447,1-1s-0.447-1-1-1h-1c-0.553,0-1,0.447-1,1S51.242,39,51.795,39z"
   id="path18"
   style="fill:#6d4486;fill-opacity:1" />
	<path
   d="M18.795,43h-1c-0.553,0-1,0.447-1,1s0.447,1,1,1h1c0.553,0,1-0.447,1-1S19.348,43,18.795,43z"
   id="path20"
   style="fill:#6d4486;fill-opacity:1" />
	<path
   d="M25.795,43h-1c-0.553,0-1,0.447-1,1s0.447,1,1,1h1c0.553,0,1-0.447,1-1S26.348,43,25.795,43z"
   id="path22"
   style="fill:#6d4486;fill-opacity:1" />
	<path
   d="M32.795,43h-1c-0.553,0-1,0.447-1,1s0.447,1,1,1h1c0.553,0,1-0.447,1-1S33.348,43,32.795,43z"
   id="path24"
   style="fill:#6d4486;fill-opacity:1" />
	<path
   d="M38.795,43h-1c-0.553,0-1,0.447-1,1s0.447,1,1,1h1c0.553,0,1-0.447,1-1S39.348,43,38.795,43z"
   id="path26"
   style="fill:#6d4486;fill-opacity:1" />
	<path
   d="M45.795,43h-1c-0.553,0-1,0.447-1,1s0.447,1,1,1h1c0.553,0,1-0.447,1-1S46.348,43,45.795,43z"
   id="path28"
   style="fill:#6d4486;fill-opacity:1" />
	<path
   d="M51.795,45h1c0.553,0,1-0.447,1-1s-0.447-1-1-1h-1c-0.553,0-1,0.447-1,1S51.242,45,51.795,45z"
   id="path30"
   style="fill:#6d4486;fill-opacity:1" />
	<path
   d="M18.795,55h-1c-0.553,0-1,0.447-1,1s0.447,1,1,1h1c0.553,0,1-0.447,1-1S19.348,55,18.795,55z"
   id="path32"
   style="fill:#6d4486;fill-opacity:1" />
	<path
   d="M25.795,55h-1c-0.553,0-1,0.447-1,1s0.447,1,1,1h1c0.553,0,1-0.447,1-1S26.348,55,25.795,55z"
   id="path34"
   style="fill:#6d4486;fill-opacity:1" />
	<path
   d="M32.795,55h-1c-0.553,0-1,0.447-1,1s0.447,1,1,1h1c0.553,0,1-0.447,1-1S33.348,55,32.795,55z"
   id="path36"
   style="fill:#6d4486;fill-opacity:1" />
	<path
   d="M38.795,55h-1c-0.553,0-1,0.447-1,1s0.447,1,1,1h1c0.553,0,1-0.447,1-1S39.348,55,38.795,55z"
   id="path38"
   style="fill:#6d4486;fill-opacity:1" />
	<path
   d="M18.795,49h-1c-0.553,0-1,0.447-1,1s0.447,1,1,1h1c0.553,0,1-0.447,1-1S19.348,49,18.795,49z"
   id="path40"
   style="fill:#6d4486;fill-opacity:1" />
	<path
   d="M25.795,49h-1c-0.553,0-1,0.447-1,1s0.447,1,1,1h1c0.553,0,1-0.447,1-1S26.348,49,25.795,49z"
   id="path42"
   style="fill:#6d4486;fill-opacity:1" />
	<path
   d="M32.795,49h-1c-0.553,0-1,0.447-1,1s0.447,1,1,1h1c0.553,0,1-0.447,1-1S33.348,49,32.795,49z"
   id="path44"
   style="fill:#6d4486;fill-opacity:1" />
	<path
   d="M38.795,49h-1c-0.553,0-1,0.447-1,1s0.447,1,1,1h1c0.553,0,1-0.447,1-1S39.348,49,38.795,49z"
   id="path46"
   style="fill:#6d4486;fill-opacity:1" />
	<path
   d="M45.795,49h-1c-0.553,0-1,0.447-1,1s0.447,1,1,1h1c0.553,0,1-0.447,1-1S46.348,49,45.795,49z"
   id="path48"
   style="fill:#6d4486;fill-opacity:1" />
	<path
   d="M51.795,51h1c0.553,0,1-0.447,1-1s-0.447-1-1-1h-1c-0.553,0-1,0.447-1,1S51.242,51,51.795,51z"
   id="path50"
   style="fill:#6d4486;fill-opacity:1" />
</g>
</svg>
