<?xml version="1.0" encoding="UTF-8" standalone="no"?>
<svg
   viewBox="0 0 512 512"
   version="1.1"
   id="svg13"
   sodipodi:docname="streaming.svg"
   inkscape:version="1.1.1 (3bf5ae0d25, 2021-09-20)"
   xmlns:inkscape="http://www.inkscape.org/namespaces/inkscape"
   xmlns:sodipodi="http://sodipodi.sourceforge.net/DTD/sodipodi-0.dtd"
   xmlns="http://www.w3.org/2000/svg"
   xmlns:svg="http://www.w3.org/2000/svg">
  <defs
     id="defs17" />
  <sodipodi:namedview
     id="namedview15"
     pagecolor="#ffffff"
     bordercolor="#666666"
     borderopacity="1.0"
     inkscape:pageshadow="2"
     inkscape:pageopacity="0.0"
     inkscape:pagecheckerboard="0"
     showgrid="false"
     inkscape:zoom="1.015625"
     inkscape:cx="228.43077"
     inkscape:cy="279.13846"
     inkscape:window-width="1366"
     inkscape:window-height="705"
     inkscape:window-x="-8"
     inkscape:window-y="-8"
     inkscape:window-maximized="1"
     inkscape:current-layer="svg13" />
  <g
     data-name="Streaming _System"
     id="Streaming__System">
    <path
       d="M392.1436,339.0046a53.9948,53.9948,0,0,0-52.7676-65.42q-1.3623,0-2.7383.0712a93.1387,93.1387,0,0,0-175.5156,43.4493q0,1.248.0341,2.5014-1.0209-.0315-2.0371-.0312a68.9929,68.9929,0,0,0-58.2734,105.9487,8,8,0,0,0,6.7529,3.7109H408.5908a8,8,0,0,0,7.3135-4.7578,69.3583,69.3583,0,0,0,5.9824-28.2866A70.1254,70.1254,0,0,0,392.1436,339.0046Zm10.9814,74.23H112.2a52.9989,52.9989,0,0,1,46.9189-77.66,51.1817,51.1817,0,0,1,5.1968.2715,18.8332,18.8332,0,0,1,5.3406,1.372,53.0291,53.0291,0,0,1,7.5593,3.82,7.9973,7.9973,0,0,0,11.1507-2.645,8.2236,8.2236,0,0,0-2.93-11.0864,62.9688,62.9688,0,0,0-8.0742-4.2393c-.1536-1.9926-.24-3.9863-.24-5.9633a77.14,77.14,0,0,1,147.4941-31.6236,8.005,8.005,0,0,0,8.584,4.6114,38.4262,38.4262,0,0,1,6.1758-.5083,38.0332,38.0332,0,0,1,37.99,37.9907c0,1.13-.0537,2.2547-.1533,3.3745a71.6333,71.6333,0,0,0-43.7871-3.0452,8,8,0,1,0,3.84,15.5323,55.72,55.72,0,0,1,13.3643-1.6187,55.14,55.14,0,0,1,29.1919,8.3186l.0185-.06a54.067,54.067,0,0,1,26.0464,46.114A53.4965,53.4965,0,0,1,403.125,413.235Z"
       id="path2"
       style="fill:#6d4486;fill-opacity:1" />
    <path
       d="M227.58,189.0007a8,8,0,0,0,11.3144,11.3134,31.362,31.362,0,0,1,44.3018,0,8,8,0,0,0,11.3144-11.3134A47.3818,47.3818,0,0,0,227.58,189.0007Z"
       id="path4"
       style="fill:#6d4486;fill-opacity:1" />
    <path
       d="M319.1377,172.3723a8,8,0,0,0,5.6572-13.6568,90.1559,90.1559,0,0,0-127.499,0A8,8,0,1,0,208.61,170.029a74.1546,74.1546,0,0,1,104.87,0A7.974,7.974,0,0,0,319.1377,172.3723Z"
       id="path6"
       style="fill:#6d4486;fill-opacity:1" />
    <path
       d="M173.53,134.9494a123.9055,123.9055,0,0,1,175.03,0,8,8,0,1,0,11.3145-11.3135c-54.4941-54.4941-143.1611-54.4951-197.6592,0A8,8,0,1,0,173.53,134.9494Z"
       id="path8"
       style="fill:#6d4486;fill-opacity:1" />
    <path
       d="M305.2324,330.9333,241.31,296.9455a7.5,7.5,0,0,0-11.02,6.6221v67.9756a7.4994,7.4994,0,0,0,11.02,6.622l63.9228-33.9878a7.4994,7.4994,0,0,0,0-13.2441Z"
       id="path10"
       style="fill:#6d4486;fill-opacity:1" />
  </g>
</svg>
