<?xml version="1.0" encoding="UTF-8" standalone="no"?>
<!-- Generator: Adobe Illustrator 18.0.0, SVG Export Plug-In . SVG Version: 6.00 Build 0)  -->

<svg
   version="1.1"
   id="Capa_1"
   x="0px"
   y="0px"
   viewBox="0 0 444.456 444.456"
   style="enable-background:new 0 0 444.456 444.456;"
   xml:space="preserve"
   sodipodi:docname="wallet.svg"
   inkscape:version="1.1.1 (3bf5ae0d25, 2021-09-20)"
   xmlns:inkscape="http://www.inkscape.org/namespaces/inkscape"
   xmlns:sodipodi="http://sodipodi.sourceforge.net/DTD/sodipodi-0.dtd"
   xmlns="http://www.w3.org/2000/svg"
   xmlns:svg="http://www.w3.org/2000/svg"><defs
   id="defs41" /><sodipodi:namedview
   id="namedview39"
   pagecolor="#ffffff"
   bordercolor="#666666"
   borderopacity="1.0"
   inkscape:pageshadow="2"
   inkscape:pageopacity="0.0"
   inkscape:pagecheckerboard="0"
   showgrid="false"
   inkscape:zoom="1.1699696"
   inkscape:cx="246.5876"
   inkscape:cy="273.08402"
   inkscape:window-width="1366"
   inkscape:window-height="705"
   inkscape:window-x="-8"
   inkscape:window-y="-8"
   inkscape:window-maximized="1"
   inkscape:current-layer="Capa_1" />
<g
   id="g6"
   transform="matrix(0.846,0,0,0.8458092,34.223035,34.215299)">
	<path
   d="M 398.754,160.028 337.51,154.195 V 26.894 c 0,-9.159 -4.591,-17.597 -12.282,-22.571 -7.689,-4.974 -17.269,-5.702 -25.622,-1.945 L 25.795,125.495 v 10e-4 c -0.713,0.321 -1.38,0.754 -1.97,1.291 -1.563,1.421 -2.455,3.436 -2.455,5.549 V 402.06 c 0,3.867 2.939,7.1 6.789,7.466 l 365.497,34.809 c 0.846,0.081 1.691,0.12 2.535,0.12 6.654,0 13.136,-2.48 18.098,-6.992 5.59,-5.083 8.796,-12.332 8.796,-19.888 v -230.79 c 0.001,-13.932 -10.46,-25.436 -24.331,-26.757 z M 217.525,142.768 322.51,95.564 v 57.203 z m 81.154,-52.935 -111.338,50.061 -57.767,-5.502 160.784,-72.291 c 2.642,-1.191 4.813,-0.102 5.624,0.422 0.811,0.524 2.698,2.057 2.698,4.958 v 22.352 z m 7.079,-73.774 c 3.746,-1.685 7.875,-1.371 11.324,0.86 3.45,2.231 5.428,5.867 5.428,9.976 v 52.223 l -8.831,3.971 V 67.482 c 0,-7.126 -3.572,-13.69 -9.556,-17.557 -5.982,-3.866 -13.432,-4.426 -19.922,-1.502 l -184.812,83.094 -41.6,-3.962 z m 102.328,401.518 c 0,3.388 -1.381,6.51 -3.888,8.79 -2.507,2.28 -5.747,3.36 -9.119,3.037 L 36.371,395.241 V 140.583 l 360.961,34.377 c 6.131,0.584 10.754,5.668 10.754,11.827 z"
   id="path2"
   style="fill:#6d4486;fill-opacity:1" />
	<path
   d="m 362.523,271.072 c -14.896,0 -27.014,13.083 -27.014,29.165 0,16.081 12.119,29.165 27.014,29.165 14.895,0 27.014,-13.083 27.014,-29.165 0,-16.082 -12.118,-29.165 -27.014,-29.165 z m 0,43.329 c -6.625,0 -12.014,-6.354 -12.014,-14.165 0,-7.811 5.39,-14.165 12.014,-14.165 6.624,0 12.014,6.354 12.014,14.165 0,7.811 -5.389,14.165 -12.014,14.165 z"
   id="path4"
   style="fill:#6d4486;fill-opacity:1" />
</g>
<g
   id="g8">
</g>
<g
   id="g10">
</g>
<g
   id="g12">
</g>
<g
   id="g14">
</g>
<g
   id="g16">
</g>
<g
   id="g18">
</g>
<g
   id="g20">
</g>
<g
   id="g22">
</g>
<g
   id="g24">
</g>
<g
   id="g26">
</g>
<g
   id="g28">
</g>
<g
   id="g30">
</g>
<g
   id="g32">
</g>
<g
   id="g34">
</g>
<g
   id="g36">
</g>
</svg>
